{
  "accessors": [
    {
      "bufferView": 2,
      "componentType": 5126,
      "count": 2178,
      "max": [
        512.0,
        138.37100219726563,
        25.200000762939453
      ],
      "min": [
        -512.0,
        -138.37100219726563,
        0.20000000298023224
      ],
      "type": "VEC3"
    },
    {
      "bufferView": 2,
      "byteOffset": 26136,
      "componentType": 5126,
      "count": 2178,
      "max": [
        1.0,
        1.0,
        1.0
      ],
      "min": [
        -1.0,
        -1.0,
        -1.0
      ],
      "type": "VEC3"
    },
    {
      "bufferView": 1,
      "componentType": 5126,
      "count": 2178,
      "max": [
        1.0,
        0.6351279020309448
      ],
      "min": [
        0.0,
        0.3648720681667328
      ],
      "type": "VEC2"
    },
    {
      "bufferView": 1,
      "byteOffset": 17424,
      "componentType": 5126,
      "count": 2178,
      "max": [
        1.0,
        0.6351279020309448
      ],
      "min": [
        0.0,
        0.3648720681667328
      ],
      "type": "VEC2"
    },
    {
      "bufferView": 1,
      "byteOffset": 34848,
      "componentType": 5126,
      "count": 2178,
      "max": [
        1.0,
        0.6351279020309448
      ],
      "min": [
        0.0,
        0.3648720681667328
      ],
      "type": "VEC2"
    },
    {
      "bufferView": 1,
      "byteOffset": 52272,
      "componentType": 5126,
      "count": 2178,
      "max": [
        1.0,
        0.6351279020309448
      ],
      "min": [
        0.0,
        0.3648720681667328
      ],
      "type": "VEC2"
    },
    {
      "bufferView": 1,
      "byteOffset": 69696,
      "componentType": 5126,
      "count": 2178,
      "max": [
        1.0,
        0.6351279020309448
      ],
      "min": [
        0.0,
        0.3648720681667328
      ],
      "type": "VEC2"
    },
    {
      "bufferView": 1,
      "byteOffset": 87120,
      "componentType": 5126,
      "count": 2178,
      "max": [
        1.0,
        0.6351279020309448
      ],
      "min": [
        0.0,
        0.3648720681667328
      ],
      "type": "VEC2"
    },
    {
      "bufferView": 1,
      "byteOffset": 104544,
      "componentType": 5126,
      "count": 2178,
      "max": [
        1.0,
        0.6351279020309448
      ],
      "min": [
        0.0,
        0.3648720681667328
      ],
      "type": "VEC2"
    },
    {
      "bufferView": 1,
      "byteOffset": 121968,
      "componentType": 5126,
      "count": 2178,
      "max": [
        1.0,
        0.6351279020309448
      ],
      "min": [
        0.0,
        0.3648720681667328
      ],
      "type": "VEC2"
    },
    {
      "bufferView": 1,
      "byteOffset": 139392,
      "componentType": 5126,
      "count": 2178,
      "max": [
        1.0,
        0.6351279020309448
      ],
      "min": [
        0.0,
        0.3648720681667328
      ],
      "type": "VEC2"
    },
    {
      "bufferView": 1,
      "byteOffset": 156816,
      "componentType": 5126,
      "count": 2178,
      "max": [
        1.0,
        0.6351279020309448
      ],
      "min": [
        0.0,
        0.3648720681667328
      ],
      "type": "VEC2"
    },
    {
      "bufferView": 0,
      "componentType": 5125,
      "count": 4272,
      "type": "SCALAR"
    }
  ],
  "asset": {
    "extras": {
      "author": "nicmitham (https://sketchfab.com/nicmitham)",
      "license": "CC-BY-4.0 (http://creativecommons.org/licenses/by/4.0/)",
      "source": "https://sketchfab.com/3d-models/netflix-logo-982a5030b7e44af4b85f608c69067c1b",
      "title": "Netflix logo"
    },
    "generator": "Sketchfab-15.59.0",
    "version": "2.0"
  },
  "bufferViews": [
    {
      "buffer": 0,
      "byteLength": 17088,
      "name": "floatBufferViews",
      "target": 34963
    },
    {
      "buffer": 0,
      "byteLength": 174240,
      "byteOffset": 17088,
      "byteStride": 8,
      "name": "floatBufferViews",
      "target": 34962
    },
    {
      "buffer": 0,
      "byteLength": 52272,
      "byteOffset": 191328,
      "byteStride": 12,
      "name": "floatBufferViews",
      "target": 34962
    }
  ],
  "buffers": [
    {
      "byteLength": 243600,
      "uri": "scene.bin"
    }
  ],
  "extensionsUsed": [
    "KHR_materials_unlit"
  ],
  "materials": [
    {
      "doubleSided": true,
      "extensions": {
        "KHR_materials_unlit": {}
      },
      "name": "Path__0",
      "pbrMetallicRoughness": {
        "baseColorFactor": [
          0.5647115057049286,
          0.03560131487502032,
          0.030713443732993617,
          1.0
        ],
        "metallicFactor": 0.0
      }
    }
  ],
  "meshes": [
    {
      "name": "Path__0",
      "primitives": [
        {
          "attributes": {
            "NORMAL": 1,
            "POSITION": 0,
            "TEXCOORD_0": 2,
            "TEXCOORD_1": 3,
            "TEXCOORD_2": 4,
            "TEXCOORD_3": 5,
            "TEXCOORD_4": 6,
            "TEXCOORD_5": 7,
            "TEXCOORD_6": 8,
            "TEXCOORD_7": 9,
            "TEXCOORD_8": 10,
            "TEXCOORD_9": 11
          },
          "indices": 12,
          "material": 0,
          "mode": 4
        }
      ]
    }
  ],
  "nodes": [
    {
      "children": [
        1
      ],
      "matrix": [
        1.0,
        0.0,
        0.0,
        0.0,
        0.0,
        2.220446049250313e-16,
        -1.0,
        0.0,
        0.0,
        1.0,
        2.220446049250313e-16,
        0.0,
        0.0,
        0.0,
        0.0,
        1.0
      ],
      "name": "Sketchfab_model"
    },
    {
      "children": [
        2
      ],
      "matrix": [
        0.0010000000474974513,
        0.0,
        0.0,
        0.0,
        0.0,
        -0.0010000000474974513,
        0.0,
        0.0,
        0.0,
        0.0,
        -0.0010000000474974513,
        0.0,
        0.0,
        0.0,
        0.0,
        1.0
      ],
      "name": "8578c2ad866943adba15c0a462b6d01c.fbx"
    },
    {
      "children": [
        3
      ],
      "name": "RootNode"
    },
    {
      "children": [
        4
      ],
      "name": "Netflix_2015_logo"
    },
    {
      "children": [
        5
      ],
      "name": "Path"
    },
    {
      "mesh": 0,
      "name": "Path__0"
    }
  ],
  "scene": 0,
  "scenes": [
    {
      "name": "Sketchfab_Scene",
      "nodes": [
        0
      ]
    }
  ]
}
